<mxfile host="app.diagrams.net" agent="Mozilla/5.0 (Windows NT 10.0; Win64; x64) AppleWebKit/537.36 (KHTML, like Gecko) Chrome/128.0.0.0 Safari/537.36" version="24.7.7">
  <diagram name="Page-1" id="JXDLvZdR9p80iNCEs0kA">
    <mxGraphModel dx="1050" dy="581" grid="1" gridSize="10" guides="1" tooltips="1" connect="1" arrows="1" fold="1" page="1" pageScale="1" pageWidth="850" pageHeight="1100" math="0" shadow="0">
      <root>
        <mxCell id="0" />
        <mxCell id="1" parent="0" />
        <mxCell id="XPOmjxFCTDeWXqTsA7KL-3" value="" style="edgeStyle=orthogonalEdgeStyle;rounded=0;orthogonalLoop=1;jettySize=auto;html=1;" edge="1" parent="1" source="XPOmjxFCTDeWXqTsA7KL-1" target="XPOmjxFCTDeWXqTsA7KL-2">
          <mxGeometry relative="1" as="geometry" />
        </mxCell>
        <mxCell id="XPOmjxFCTDeWXqTsA7KL-1" value="&lt;font style=&quot;font-size: 16px;&quot;&gt;Mulai&lt;/font&gt;" style="strokeWidth=2;html=1;shape=mxgraph.flowchart.terminator;whiteSpace=wrap;" vertex="1" parent="1">
          <mxGeometry x="240" y="40" width="140" height="50" as="geometry" />
        </mxCell>
        <mxCell id="XPOmjxFCTDeWXqTsA7KL-5" value="" style="edgeStyle=orthogonalEdgeStyle;rounded=0;orthogonalLoop=1;jettySize=auto;html=1;" edge="1" parent="1" source="XPOmjxFCTDeWXqTsA7KL-2" target="XPOmjxFCTDeWXqTsA7KL-4">
          <mxGeometry relative="1" as="geometry" />
        </mxCell>
        <mxCell id="XPOmjxFCTDeWXqTsA7KL-2" value="&lt;font style=&quot;font-size: 14px;&quot;&gt;Masukkan&amp;nbsp;&lt;/font&gt;&lt;div&gt;&lt;font style=&quot;font-size: 14px;&quot;&gt;alas_segitiga&lt;/font&gt;&lt;/div&gt;" style="shape=parallelogram;html=1;strokeWidth=2;perimeter=parallelogramPerimeter;whiteSpace=wrap;rounded=1;arcSize=12;size=0.23;" vertex="1" parent="1">
          <mxGeometry x="220" y="130" width="180" height="60" as="geometry" />
        </mxCell>
        <mxCell id="XPOmjxFCTDeWXqTsA7KL-7" value="" style="edgeStyle=orthogonalEdgeStyle;rounded=0;orthogonalLoop=1;jettySize=auto;html=1;" edge="1" parent="1" source="XPOmjxFCTDeWXqTsA7KL-4" target="XPOmjxFCTDeWXqTsA7KL-6">
          <mxGeometry relative="1" as="geometry" />
        </mxCell>
        <mxCell id="XPOmjxFCTDeWXqTsA7KL-4" value="&lt;font style=&quot;font-size: 14px;&quot;&gt;Masukkan&amp;nbsp;&lt;/font&gt;&lt;div&gt;&lt;font style=&quot;font-size: 14px;&quot;&gt;tinggi_segitiga&lt;/font&gt;&lt;/div&gt;" style="shape=parallelogram;html=1;strokeWidth=2;perimeter=parallelogramPerimeter;whiteSpace=wrap;rounded=1;arcSize=12;size=0.23;" vertex="1" parent="1">
          <mxGeometry x="220" y="230" width="180" height="60" as="geometry" />
        </mxCell>
        <mxCell id="XPOmjxFCTDeWXqTsA7KL-9" value="" style="edgeStyle=orthogonalEdgeStyle;rounded=0;orthogonalLoop=1;jettySize=auto;html=1;" edge="1" parent="1" source="XPOmjxFCTDeWXqTsA7KL-6" target="XPOmjxFCTDeWXqTsA7KL-8">
          <mxGeometry relative="1" as="geometry" />
        </mxCell>
        <mxCell id="XPOmjxFCTDeWXqTsA7KL-6" value="&lt;font style=&quot;font-size: 14px;&quot;&gt;Masukkan&amp;nbsp;&lt;/font&gt;&lt;div&gt;&lt;font style=&quot;font-size: 14px;&quot;&gt;tinggi_prisma&lt;/font&gt;&lt;/div&gt;" style="shape=parallelogram;html=1;strokeWidth=2;perimeter=parallelogramPerimeter;whiteSpace=wrap;rounded=1;arcSize=12;size=0.23;" vertex="1" parent="1">
          <mxGeometry x="220" y="330" width="180" height="60" as="geometry" />
        </mxCell>
        <mxCell id="XPOmjxFCTDeWXqTsA7KL-11" value="" style="edgeStyle=orthogonalEdgeStyle;rounded=0;orthogonalLoop=1;jettySize=auto;html=1;" edge="1" parent="1" source="XPOmjxFCTDeWXqTsA7KL-8" target="XPOmjxFCTDeWXqTsA7KL-10">
          <mxGeometry relative="1" as="geometry" />
        </mxCell>
        <mxCell id="XPOmjxFCTDeWXqTsA7KL-8" value="&lt;font style=&quot;font-size: 15px;&quot;&gt;Hitung volume&lt;/font&gt;&lt;div style=&quot;font-size: 15px;&quot;&gt;&lt;font style=&quot;font-size: 15px;&quot;&gt;volume = ((alas_segitiga * tinggi_segitiga) / 2) * tinggi_prisma&lt;/font&gt;&lt;/div&gt;" style="rounded=1;whiteSpace=wrap;html=1;absoluteArcSize=1;arcSize=14;strokeWidth=2;" vertex="1" parent="1">
          <mxGeometry x="210" y="430" width="200" height="110" as="geometry" />
        </mxCell>
        <mxCell id="XPOmjxFCTDeWXqTsA7KL-10" value="&lt;span style=&quot;font-size: 16px;&quot;&gt;Selesai&lt;/span&gt;" style="strokeWidth=2;html=1;shape=mxgraph.flowchart.terminator;whiteSpace=wrap;" vertex="1" parent="1">
          <mxGeometry x="240" y="580" width="140" height="50" as="geometry" />
        </mxCell>
      </root>
    </mxGraphModel>
  </diagram>
</mxfile>
